<svg width="707" height="982" viewBox="0 0 707 982" fill="none" xmlns="http://www.w3.org/2000/svg">
<g filter="url(#filter0_ddddd_1156_937)">
<path d="M128 39H501.333V232C501.333 249.673 487.006 264 469.333 264H160C142.327 264 128 249.673 128 232V39Z" fill="white"/>
<path d="M165.06 84.122H167.567C169.154 84.122 170.12 83.202 170.12 81.799C170.12 80.35 169.154 79.453 167.567 79.453H165.06V84.122ZM167.958 86.859H165.037V93H161.863V76.693H167.958C171.178 76.693 173.317 78.832 173.317 81.776C173.317 84.743 171.178 86.859 167.958 86.859ZM174.487 89.918C174.487 87.894 175.982 86.767 177.868 86.491L180.651 86.077C181.295 85.985 181.502 85.663 181.502 85.272C181.502 84.467 180.881 83.8 179.593 83.8C178.259 83.8 177.523 84.651 177.431 85.64L174.717 85.065C174.901 83.294 176.534 81.339 179.57 81.339C183.158 81.339 184.492 83.363 184.492 85.64V91.206C184.492 91.804 184.561 92.609 184.63 93H181.824C181.755 92.701 181.709 92.08 181.709 91.643C181.134 92.54 180.053 93.322 178.374 93.322C175.959 93.322 174.487 91.689 174.487 89.918ZM179.018 91.045C180.306 91.045 181.502 90.424 181.502 88.423V87.917L178.949 88.308C178.167 88.423 177.546 88.86 177.546 89.734C177.546 90.401 178.029 91.045 179.018 91.045ZM194.475 81.638V84.72C194.13 84.651 193.831 84.628 193.555 84.628C191.991 84.628 190.634 85.387 190.634 87.825V93H187.575V81.684H190.542V83.363C191.232 81.868 192.796 81.592 193.762 81.592C194.015 81.592 194.245 81.615 194.475 81.638ZM196.005 89.918C196.005 87.894 197.5 86.767 199.386 86.491L202.169 86.077C202.813 85.985 203.02 85.663 203.02 85.272C203.02 84.467 202.399 83.8 201.111 83.8C199.777 83.8 199.041 84.651 198.949 85.64L196.235 85.065C196.419 83.294 198.052 81.339 201.088 81.339C204.676 81.339 206.01 83.363 206.01 85.64V91.206C206.01 91.804 206.079 92.609 206.148 93H203.342C203.273 92.701 203.227 92.08 203.227 91.643C202.652 92.54 201.571 93.322 199.892 93.322C197.477 93.322 196.005 91.689 196.005 89.918ZM200.536 91.045C201.824 91.045 203.02 90.424 203.02 88.423V87.917L200.467 88.308C199.685 88.423 199.064 88.86 199.064 89.734C199.064 90.401 199.547 91.045 200.536 91.045ZM219.835 76.348V90.953C219.835 91.712 219.881 92.54 219.927 93H217.006C216.96 92.77 216.891 92.218 216.891 91.689C216.385 92.586 215.235 93.276 213.717 93.276C210.497 93.276 208.197 90.746 208.197 87.319C208.197 84.007 210.428 81.408 213.625 81.408C215.58 81.408 216.5 82.213 216.822 82.811V76.348H219.835ZM211.279 87.319C211.279 89.343 212.475 90.539 214.085 90.539C215.649 90.539 216.868 89.343 216.868 87.296C216.868 85.272 215.649 84.145 214.085 84.145C212.521 84.145 211.279 85.295 211.279 87.319ZM226.213 93H223.154V81.684H226.213V93ZM222.786 77.981C222.786 76.923 223.637 76.072 224.672 76.072C225.73 76.072 226.558 76.923 226.558 77.981C226.558 78.993 225.73 79.844 224.672 79.844C223.637 79.844 222.786 78.993 222.786 77.981ZM228.521 89.849L231.143 89.274C231.212 90.171 231.879 90.999 233.213 90.999C234.225 90.999 234.708 90.47 234.708 89.872C234.708 89.366 234.363 88.952 233.489 88.768L231.994 88.423C229.809 87.94 228.82 86.629 228.82 85.042C228.82 83.018 230.614 81.339 233.052 81.339C236.272 81.339 237.353 83.386 237.491 84.605L234.938 85.18C234.846 84.513 234.363 83.662 233.075 83.662C232.27 83.662 231.626 84.145 231.626 84.789C231.626 85.341 232.04 85.686 232.661 85.801L234.271 86.146C236.502 86.606 237.629 87.963 237.629 89.619C237.629 91.459 236.203 93.345 233.236 93.345C229.832 93.345 228.659 91.137 228.521 89.849ZM242.275 86.054H247.335C247.289 84.927 246.553 83.823 244.805 83.823C243.218 83.823 242.344 85.019 242.275 86.054ZM247.634 88.998L250.187 89.757C249.612 91.712 247.818 93.345 245.035 93.345C241.93 93.345 239.193 91.114 239.193 87.296C239.193 83.685 241.861 81.339 244.759 81.339C248.255 81.339 250.348 83.57 250.348 87.204C250.348 87.641 250.302 88.101 250.302 88.147H242.206C242.275 89.642 243.54 90.723 245.058 90.723C246.484 90.723 247.266 90.01 247.634 88.998ZM258.67 76.693H264.535C267.709 76.693 269.503 78.556 269.503 81.086C269.503 82.765 268.491 84.122 267.134 84.582C268.721 84.973 270.009 86.422 270.009 88.446C270.009 91.091 268.031 93 264.972 93H258.67V76.693ZM261.798 83.432H264.052C265.501 83.432 266.375 82.627 266.375 81.385C266.375 80.143 265.57 79.361 264.029 79.361H261.798V83.432ZM261.798 90.355H264.374C265.915 90.355 266.835 89.55 266.835 88.239C266.835 86.951 266.007 86.054 264.42 86.054H261.798V90.355ZM274.821 86.054H279.881C279.835 84.927 279.099 83.823 277.351 83.823C275.764 83.823 274.89 85.019 274.821 86.054ZM280.18 88.998L282.733 89.757C282.158 91.712 280.364 93.345 277.581 93.345C274.476 93.345 271.739 91.114 271.739 87.296C271.739 83.685 274.407 81.339 277.305 81.339C280.801 81.339 282.894 83.57 282.894 87.204C282.894 87.641 282.848 88.101 282.848 88.147H274.752C274.821 89.642 276.086 90.723 277.604 90.723C279.03 90.723 279.812 90.01 280.18 88.998ZM284.613 89.918C284.613 87.894 286.108 86.767 287.994 86.491L290.777 86.077C291.421 85.985 291.628 85.663 291.628 85.272C291.628 84.467 291.007 83.8 289.719 83.8C288.385 83.8 287.649 84.651 287.557 85.64L284.843 85.065C285.027 83.294 286.66 81.339 289.696 81.339C293.284 81.339 294.618 83.363 294.618 85.64V91.206C294.618 91.804 294.687 92.609 294.756 93H291.95C291.881 92.701 291.835 92.08 291.835 91.643C291.26 92.54 290.179 93.322 288.5 93.322C286.085 93.322 284.613 91.689 284.613 89.918ZM289.144 91.045C290.432 91.045 291.628 90.424 291.628 88.423V87.917L289.075 88.308C288.293 88.423 287.672 88.86 287.672 89.734C287.672 90.401 288.155 91.045 289.144 91.045ZM302.739 84.168C301.175 84.168 299.864 85.295 299.864 87.342C299.864 89.389 301.198 90.539 302.762 90.539C304.326 90.539 305.108 89.504 305.361 88.63L308.052 89.527C307.546 91.413 305.775 93.345 302.762 93.345C299.427 93.345 296.805 90.815 296.805 87.342C296.805 83.846 299.381 81.339 302.67 81.339C305.752 81.339 307.5 83.248 307.983 85.157L305.246 86.077C304.97 85.134 304.257 84.168 302.739 84.168ZM313.361 86.353V93H310.302V76.348H313.361V82.627C314.097 81.753 315.339 81.385 316.42 81.385C319.295 81.385 320.629 83.386 320.629 85.87V93H317.57V86.399C317.57 85.134 316.949 84.145 315.477 84.145C314.189 84.145 313.43 85.111 313.361 86.353ZM323.504 91.16C323.504 90.056 324.401 89.228 325.597 89.228C327.023 89.228 327.874 90.378 327.874 91.873C327.874 95.254 325.528 96.68 323.826 96.887V95.415C324.861 95.185 325.965 94.196 326.011 92.931C325.919 93 325.666 93.069 325.413 93.069C324.286 93.069 323.504 92.264 323.504 91.16ZM161.863 104.693H167.728C170.902 104.693 172.696 106.556 172.696 109.086C172.696 110.765 171.684 112.122 170.327 112.582C171.914 112.973 173.202 114.422 173.202 116.446C173.202 119.091 171.224 121 168.165 121H161.863V104.693ZM164.991 111.432H167.245C168.694 111.432 169.568 110.627 169.568 109.385C169.568 108.143 168.763 107.361 167.222 107.361H164.991V111.432ZM164.991 118.355H167.567C169.108 118.355 170.028 117.55 170.028 116.239C170.028 114.951 169.2 114.054 167.613 114.054H164.991V118.355ZM174.959 117.918C174.959 115.894 176.454 114.767 178.34 114.491L181.123 114.077C181.767 113.985 181.974 113.663 181.974 113.272C181.974 112.467 181.353 111.8 180.065 111.8C178.731 111.8 177.995 112.651 177.903 113.64L175.189 113.065C175.373 111.294 177.006 109.339 180.042 109.339C183.63 109.339 184.964 111.363 184.964 113.64V119.206C184.964 119.804 185.033 120.609 185.102 121H182.296C182.227 120.701 182.181 120.08 182.181 119.643C181.606 120.54 180.525 121.322 178.846 121.322C176.431 121.322 174.959 119.689 174.959 117.918ZM179.49 119.045C180.778 119.045 181.974 118.424 181.974 116.423V115.917L179.421 116.308C178.639 116.423 178.018 116.86 178.018 117.734C178.018 118.401 178.501 119.045 179.49 119.045ZM191.106 114.491V121H188.047V109.684H191.014V111.087C191.704 109.914 193.061 109.385 194.28 109.385C197.086 109.385 198.374 111.386 198.374 113.87V121H195.315V114.399C195.315 113.134 194.694 112.145 193.222 112.145C191.888 112.145 191.106 113.18 191.106 114.491ZM205.251 106.303V109.684H207.528V112.398H205.251V117.136C205.251 118.125 205.711 118.447 206.585 118.447C206.953 118.447 207.367 118.401 207.528 118.355V120.885C207.252 121 206.7 121.161 205.803 121.161C203.595 121.161 202.215 119.85 202.215 117.665V112.398H200.168V109.684H200.743C201.939 109.684 202.491 108.902 202.491 107.89V106.303H205.251ZM209.504 117.918C209.504 115.894 210.999 114.767 212.885 114.491L215.668 114.077C216.312 113.985 216.519 113.663 216.519 113.272C216.519 112.467 215.898 111.8 214.61 111.8C213.276 111.8 212.54 112.651 212.448 113.64L209.734 113.065C209.918 111.294 211.551 109.339 214.587 109.339C218.175 109.339 219.509 111.363 219.509 113.64V119.206C219.509 119.804 219.578 120.609 219.647 121H216.841C216.772 120.701 216.726 120.08 216.726 119.643C216.151 120.54 215.07 121.322 213.391 121.322C210.976 121.322 209.504 119.689 209.504 117.918ZM214.035 119.045C215.323 119.045 216.519 118.424 216.519 116.423V115.917L213.966 116.308C213.184 116.423 212.563 116.86 212.563 117.734C212.563 118.401 213.046 119.045 214.035 119.045ZM226.21 125.462H222.967L225.635 119.574L220.828 109.684H224.255L227.268 116.308L230.051 109.684H233.317L226.21 125.462ZM234.143 117.918C234.143 115.894 235.638 114.767 237.524 114.491L240.307 114.077C240.951 113.985 241.158 113.663 241.158 113.272C241.158 112.467 240.537 111.8 239.249 111.8C237.915 111.8 237.179 112.651 237.087 113.64L234.373 113.065C234.557 111.294 236.19 109.339 239.226 109.339C242.814 109.339 244.148 111.363 244.148 113.64V119.206C244.148 119.804 244.217 120.609 244.286 121H241.48C241.411 120.701 241.365 120.08 241.365 119.643C240.79 120.54 239.709 121.322 238.03 121.322C235.615 121.322 234.143 119.689 234.143 117.918ZM238.674 119.045C239.962 119.045 241.158 118.424 241.158 116.423V115.917L238.605 116.308C237.823 116.423 237.202 116.86 237.202 117.734C237.202 118.401 237.685 119.045 238.674 119.045ZM250.291 114.491V121H247.232V109.684H250.199V111.087C250.889 109.914 252.246 109.385 253.465 109.385C256.271 109.385 257.559 111.386 257.559 113.87V121H254.5V114.399C254.5 113.134 253.879 112.145 252.407 112.145C251.073 112.145 250.291 113.18 250.291 114.491ZM269.796 121H266.576V104.693H269.796V121ZM272.32 117.849L274.942 117.274C275.011 118.171 275.678 118.999 277.012 118.999C278.024 118.999 278.507 118.47 278.507 117.872C278.507 117.366 278.162 116.952 277.288 116.768L275.793 116.423C273.608 115.94 272.619 114.629 272.619 113.042C272.619 111.018 274.413 109.339 276.851 109.339C280.071 109.339 281.152 111.386 281.29 112.605L278.737 113.18C278.645 112.513 278.162 111.662 276.874 111.662C276.069 111.662 275.425 112.145 275.425 112.789C275.425 113.341 275.839 113.686 276.46 113.801L278.07 114.146C280.301 114.606 281.428 115.963 281.428 117.619C281.428 119.459 280.002 121.345 277.035 121.345C273.631 121.345 272.458 119.137 272.32 117.849ZM286.947 121H283.888V104.348H286.947V121ZM289.464 117.918C289.464 115.894 290.959 114.767 292.845 114.491L295.628 114.077C296.272 113.985 296.479 113.663 296.479 113.272C296.479 112.467 295.858 111.8 294.57 111.8C293.236 111.8 292.5 112.651 292.408 113.64L289.694 113.065C289.878 111.294 291.511 109.339 294.547 109.339C298.135 109.339 299.469 111.363 299.469 113.64V119.206C299.469 119.804 299.538 120.609 299.607 121H296.801C296.732 120.701 296.686 120.08 296.686 119.643C296.111 120.54 295.03 121.322 293.351 121.322C290.936 121.322 289.464 119.689 289.464 117.918ZM293.995 119.045C295.283 119.045 296.479 118.424 296.479 116.423V115.917L293.926 116.308C293.144 116.423 292.523 116.86 292.523 117.734C292.523 118.401 293.006 119.045 293.995 119.045ZM305.612 114.491V121H302.553V109.684H305.52V111.087C306.21 109.914 307.567 109.385 308.786 109.385C311.592 109.385 312.88 111.386 312.88 113.87V121H309.821V114.399C309.821 113.134 309.2 112.145 307.728 112.145C306.394 112.145 305.612 113.18 305.612 114.491ZM326.772 104.348V118.953C326.772 119.712 326.818 120.54 326.864 121H323.943C323.897 120.77 323.828 120.218 323.828 119.689C323.322 120.586 322.172 121.276 320.654 121.276C317.434 121.276 315.134 118.746 315.134 115.319C315.134 112.007 317.365 109.408 320.562 109.408C322.517 109.408 323.437 110.213 323.759 110.811V104.348H326.772ZM318.216 115.319C318.216 117.343 319.412 118.539 321.022 118.539C322.586 118.539 323.805 117.343 323.805 115.296C323.805 113.272 322.586 112.145 321.022 112.145C319.458 112.145 318.216 113.295 318.216 115.319Z" fill="#191825"/>
<path d="M396.613 95.691V93.207C399.373 92.77 400.891 90.815 400.891 88.699C400.891 86.629 399.58 84.904 396.682 84.26L394.589 83.777C393.508 83.547 393.002 82.949 393.002 82.236C393.002 81.293 393.807 80.442 395.279 80.442C397.165 80.442 397.763 81.776 397.901 82.581L400.73 81.776C400.408 80.235 399.258 78.395 396.613 77.912V75.382H394.267V77.843C391.806 78.234 389.92 80.028 389.92 82.466C389.92 84.674 391.461 86.238 393.945 86.79L396.061 87.25C397.211 87.503 397.786 88.101 397.786 88.883C397.786 89.895 396.912 90.608 395.417 90.608C393.301 90.608 392.335 89.274 392.197 87.825L389.345 88.515C389.552 90.47 391.07 92.793 394.267 93.23V95.691H396.613ZM402.612 88.814C402.796 91.16 405.05 93.368 408.293 93.368C411.881 93.368 414.02 90.953 414.02 88.17C414.02 84.973 411.904 83.179 408.914 83.179C407.925 83.179 406.867 83.501 406.223 84.099L406.959 80.81H413.215V78.073H404.797L403.026 85.732C403.348 85.824 405.625 86.606 405.924 86.721C406.407 86.169 407.212 85.709 408.224 85.709C409.604 85.709 410.869 86.514 410.869 88.216C410.869 89.711 409.719 90.654 408.293 90.654C406.706 90.654 405.648 89.527 405.579 88.147L402.612 88.814ZM415.347 88.814C415.531 91.16 417.785 93.368 421.028 93.368C424.616 93.368 426.755 90.953 426.755 88.17C426.755 84.973 424.639 83.179 421.649 83.179C420.66 83.179 419.602 83.501 418.958 84.099L419.694 80.81H425.95V78.073H417.532L415.761 85.732C416.083 85.824 418.36 86.606 418.659 86.721C419.142 86.169 419.947 85.709 420.959 85.709C422.339 85.709 423.604 86.514 423.604 88.216C423.604 89.711 422.454 90.654 421.028 90.654C419.441 90.654 418.383 89.527 418.314 88.147L415.347 88.814ZM431.465 85.548C431.465 83.984 431.695 82.65 432.27 81.753C432.73 81.017 433.443 80.534 434.524 80.534C435.628 80.534 436.295 81.017 436.755 81.753C437.353 82.65 437.583 83.984 437.583 85.548C437.583 87.112 437.353 88.446 436.755 89.343C436.295 90.079 435.628 90.562 434.524 90.562C433.443 90.562 432.73 90.079 432.27 89.343C431.695 88.446 431.465 87.112 431.465 85.548ZM428.291 85.548C428.291 87.457 428.59 89.32 429.602 90.861C430.591 92.333 432.201 93.368 434.524 93.368C436.847 93.368 438.457 92.333 439.423 90.861C440.435 89.32 440.757 87.457 440.757 85.548C440.757 83.639 440.435 81.776 439.423 80.235C438.457 78.763 436.847 77.728 434.524 77.728C432.201 77.728 430.591 78.763 429.602 80.235C428.59 81.776 428.291 83.639 428.291 85.548ZM442.252 91.068C442.252 92.218 443.195 93.161 444.345 93.161C445.518 93.161 446.461 92.218 446.461 91.068C446.461 89.918 445.518 88.975 444.345 88.975C443.195 88.975 442.252 89.918 442.252 91.068ZM453.488 93V78.073H450.751C450.452 79.637 448.934 80.856 446.749 80.879V83.018H450.337V93H453.488ZM467.776 78.418C467.155 78.05 466.028 77.728 464.648 77.728C459.726 77.728 456.368 81.132 456.368 86.491C456.368 90.999 459.151 93.345 462.417 93.345C465.706 93.345 468.19 91.16 468.19 88.101C468.19 85.019 466.097 83.087 463.038 83.087C461.29 83.087 460.048 83.915 459.496 84.743C459.841 81.937 461.911 80.465 464.441 80.465C465.384 80.465 466.258 80.718 466.902 80.994L467.776 78.418ZM459.772 88.17C459.772 86.629 460.968 85.686 462.394 85.686C463.843 85.686 465.039 86.629 465.039 88.17C465.039 89.711 463.843 90.677 462.394 90.677C461.014 90.677 459.772 89.688 459.772 88.17Z" fill="#F85E9F"/>
<path d="M161.585 164V150.909H166.009C167.031 150.909 167.871 151.084 168.527 151.433C169.183 151.778 169.669 152.254 169.984 152.859C170.3 153.464 170.457 154.152 170.457 154.923C170.457 155.695 170.3 156.379 169.984 156.975C169.669 157.572 169.185 158.04 168.533 158.381C167.881 158.718 167.048 158.886 166.034 158.886H162.455V157.455H165.983C166.682 157.455 167.244 157.352 167.67 157.148C168.101 156.943 168.412 156.653 168.604 156.278C168.8 155.899 168.898 155.447 168.898 154.923C168.898 154.399 168.8 153.941 168.604 153.549C168.408 153.157 168.094 152.854 167.664 152.641C167.234 152.424 166.665 152.315 165.957 152.315H163.17V164H161.585ZM167.747 158.119L170.969 164H169.128L165.957 158.119H167.747ZM176.778 164.205C175.891 164.205 175.113 163.994 174.444 163.572C173.78 163.15 173.26 162.56 172.885 161.801C172.514 161.043 172.329 160.156 172.329 159.142C172.329 158.119 172.514 157.227 172.885 156.464C173.26 155.701 173.78 155.109 174.444 154.687C175.113 154.265 175.891 154.054 176.778 154.054C177.664 154.054 178.439 154.265 179.104 154.687C179.773 155.109 180.293 155.701 180.664 156.464C181.039 157.227 181.226 158.119 181.226 159.142C181.226 160.156 181.039 161.043 180.664 161.801C180.293 162.56 179.773 163.15 179.104 163.572C178.439 163.994 177.664 164.205 176.778 164.205ZM176.778 162.849C177.451 162.849 178.005 162.677 178.439 162.332C178.874 161.987 179.196 161.533 179.405 160.97C179.613 160.408 179.718 159.798 179.718 159.142C179.718 158.486 179.613 157.874 179.405 157.308C179.196 156.741 178.874 156.283 178.439 155.933C178.005 155.584 177.451 155.409 176.778 155.409C176.104 155.409 175.55 155.584 175.116 155.933C174.681 156.283 174.359 156.741 174.15 157.308C173.942 157.874 173.837 158.486 173.837 159.142C173.837 159.798 173.942 160.408 174.15 160.97C174.359 161.533 174.681 161.987 175.116 162.332C175.55 162.677 176.104 162.849 176.778 162.849ZM183.529 164V154.182H184.987V155.716H185.114C185.319 155.192 185.649 154.785 186.105 154.495C186.561 154.201 187.109 154.054 187.748 154.054C188.396 154.054 188.935 154.201 189.365 154.495C189.8 154.785 190.138 155.192 190.381 155.716H190.484C190.735 155.209 191.112 154.806 191.615 154.508C192.118 154.205 192.721 154.054 193.424 154.054C194.302 154.054 195.02 154.329 195.578 154.879C196.136 155.424 196.415 156.274 196.415 157.429V164H194.907V157.429C194.907 156.705 194.709 156.187 194.312 155.876C193.916 155.565 193.45 155.409 192.913 155.409C192.222 155.409 191.688 155.618 191.308 156.036C190.929 156.449 190.739 156.973 190.739 157.608V164H189.205V157.276C189.205 156.717 189.024 156.268 188.662 155.927C188.3 155.582 187.833 155.409 187.262 155.409C186.87 155.409 186.504 155.513 186.163 155.722C185.826 155.931 185.553 156.221 185.344 156.592C185.14 156.958 185.038 157.382 185.038 157.864V164H183.529ZM203.29 164.205C202.344 164.205 201.528 163.996 200.842 163.578C200.16 163.156 199.634 162.568 199.263 161.814C198.897 161.055 198.713 160.173 198.713 159.168C198.713 158.162 198.897 157.276 199.263 156.509C199.634 155.737 200.15 155.136 200.81 154.706C201.475 154.271 202.25 154.054 203.137 154.054C203.648 154.054 204.153 154.139 204.652 154.31C205.15 154.48 205.604 154.757 206.013 155.141C206.422 155.52 206.748 156.023 206.991 156.649C207.234 157.276 207.355 158.047 207.355 158.963V159.602H199.787V158.298H205.821C205.821 157.744 205.711 157.25 205.489 156.815C205.272 156.381 204.961 156.038 204.556 155.786C204.155 155.535 203.682 155.409 203.137 155.409C202.536 155.409 202.016 155.558 201.577 155.857C201.142 156.151 200.808 156.534 200.574 157.007C200.339 157.48 200.222 157.987 200.222 158.528V159.398C200.222 160.139 200.35 160.768 200.605 161.283C200.865 161.795 201.225 162.185 201.686 162.453C202.146 162.717 202.681 162.849 203.29 162.849C203.686 162.849 204.044 162.794 204.364 162.683C204.688 162.568 204.967 162.398 205.201 162.172C205.436 161.942 205.617 161.656 205.745 161.315L207.202 161.724C207.049 162.219 206.791 162.653 206.429 163.028C206.066 163.399 205.619 163.689 205.086 163.898C204.554 164.102 203.955 164.205 203.29 164.205ZM211.9 162.21L211.798 162.901C211.725 163.386 211.615 163.906 211.466 164.46C211.321 165.014 211.169 165.536 211.012 166.026C210.854 166.516 210.724 166.906 210.622 167.196H209.471C209.527 166.923 209.599 166.563 209.689 166.116C209.778 165.668 209.868 165.168 209.957 164.614C210.051 164.064 210.127 163.501 210.187 162.926L210.264 162.21H211.9ZM221.547 150.909V164H219.962V150.909H221.547ZM228.791 154.182V155.46H223.703V154.182H228.791ZM225.186 151.83H226.695V161.188C226.695 161.614 226.756 161.933 226.88 162.146C227.008 162.355 227.17 162.496 227.366 162.568C227.566 162.636 227.777 162.67 227.999 162.67C228.165 162.67 228.301 162.662 228.408 162.645C228.514 162.624 228.599 162.607 228.663 162.594L228.97 163.949C228.868 163.987 228.725 164.026 228.542 164.064C228.359 164.107 228.126 164.128 227.845 164.128C227.419 164.128 227.001 164.036 226.592 163.853C226.188 163.67 225.851 163.391 225.582 163.016C225.318 162.641 225.186 162.168 225.186 161.597V151.83ZM233.95 164.23C233.327 164.23 232.763 164.113 232.256 163.879C231.749 163.64 231.346 163.297 231.048 162.849C230.749 162.398 230.6 161.852 230.6 161.213C230.6 160.651 230.711 160.195 230.933 159.845C231.154 159.491 231.45 159.214 231.821 159.014C232.192 158.814 232.601 158.665 233.048 158.567C233.5 158.464 233.954 158.384 234.41 158.324C235.006 158.247 235.49 158.19 235.861 158.151C236.236 158.109 236.509 158.038 236.679 157.94C236.854 157.842 236.941 157.672 236.941 157.429V157.378C236.941 156.747 236.768 156.257 236.423 155.908C236.082 155.558 235.565 155.384 234.87 155.384C234.15 155.384 233.585 155.541 233.176 155.857C232.767 156.172 232.479 156.509 232.313 156.866L230.881 156.355C231.137 155.759 231.478 155.294 231.904 154.962C232.335 154.625 232.803 154.391 233.31 154.259C233.822 154.122 234.325 154.054 234.819 154.054C235.134 154.054 235.496 154.092 235.906 154.169C236.319 154.241 236.717 154.393 237.101 154.623C237.489 154.853 237.81 155.2 238.066 155.665C238.322 156.129 238.45 156.751 238.45 157.531V164H236.941V162.67H236.864C236.762 162.884 236.592 163.112 236.353 163.354C236.114 163.597 235.797 163.804 235.401 163.974C235.004 164.145 234.521 164.23 233.95 164.23ZM234.18 162.875C234.776 162.875 235.279 162.758 235.688 162.523C236.102 162.289 236.413 161.987 236.621 161.616C236.835 161.245 236.941 160.855 236.941 160.446V159.065C236.877 159.142 236.737 159.212 236.519 159.276C236.306 159.336 236.059 159.389 235.778 159.436C235.501 159.479 235.23 159.517 234.966 159.551C234.706 159.581 234.495 159.607 234.333 159.628C233.941 159.679 233.575 159.762 233.234 159.877C232.897 159.988 232.624 160.156 232.415 160.382C232.211 160.604 232.109 160.906 232.109 161.29C232.109 161.814 232.303 162.21 232.69 162.479C233.082 162.743 233.579 162.875 234.18 162.875ZM242.711 150.909V164H241.203V150.909H242.711ZM246.446 167.682C246.19 167.682 245.962 167.661 245.762 167.618C245.562 167.58 245.423 167.541 245.347 167.503L245.73 166.173C246.097 166.267 246.42 166.301 246.702 166.276C246.983 166.25 247.232 166.124 247.45 165.898C247.671 165.677 247.874 165.317 248.057 164.818L248.338 164.051L244.707 154.182H246.344L249.054 162.006H249.156L251.866 154.182H253.503L249.335 165.432C249.148 165.939 248.915 166.359 248.638 166.691C248.362 167.028 248.04 167.277 247.673 167.439C247.311 167.601 246.902 167.682 246.446 167.682Z" fill="#191825" fill-opacity="0.75"/>
<path d="M160.736 222.803H167.797V226H170.925V222.803H173.386V220.089H170.925V211.073H167.015L160.736 219.491V222.803ZM167.797 220.089H163.542L167.797 214.385V220.089ZM175.196 224.068C175.196 225.218 176.139 226.161 177.289 226.161C178.462 226.161 179.405 225.218 179.405 224.068C179.405 222.918 178.462 221.975 177.289 221.975C176.139 221.975 175.196 222.918 175.196 224.068ZM187.308 217.191C185.928 217.168 185.123 216.294 185.123 215.236C185.123 214.247 185.928 213.35 187.308 213.35C188.711 213.35 189.516 214.247 189.516 215.236C189.516 216.294 188.711 217.168 187.308 217.191ZM187.308 223.723C185.675 223.723 184.801 222.711 184.801 221.653C184.801 220.572 185.629 219.537 187.308 219.537C188.987 219.537 189.838 220.572 189.838 221.653C189.838 222.711 188.964 223.723 187.308 223.723ZM187.308 226.345C190.712 226.345 192.943 224.551 192.943 221.975C192.943 220.365 191.885 218.916 190.321 218.341C191.816 217.789 192.644 216.317 192.644 215.006C192.644 212.499 190.413 210.728 187.308 210.728C184.203 210.728 181.972 212.499 181.972 215.006C181.972 216.34 182.823 217.789 184.318 218.341C182.731 218.939 181.673 220.365 181.673 221.975C181.673 224.551 183.904 226.345 187.308 226.345Z" fill="#FF5722"/>
<path d="M219.918 220.32C219.659 220.571 219.54 220.934 219.599 221.29L220.488 226.21C220.563 226.627 220.387 227.049 220.038 227.29C219.696 227.54 219.241 227.57 218.868 227.37L214.439 225.06C214.285 224.978 214.114 224.934 213.939 224.929H213.668C213.574 224.943 213.482 224.973 213.398 225.019L208.968 227.34C208.749 227.45 208.501 227.489 208.258 227.45C207.666 227.338 207.271 226.774 207.368 226.179L208.258 221.259C208.317 220.9 208.198 220.535 207.939 220.28L204.328 216.78C204.026 216.487 203.921 216.047 204.059 215.65C204.193 215.254 204.535 214.965 204.948 214.9L209.918 214.179C210.296 214.14 210.628 213.91 210.798 213.57L212.988 209.08C213.04 208.98 213.107 208.888 213.188 208.81L213.278 208.74C213.325 208.688 213.379 208.645 213.439 208.61L213.548 208.57L213.718 208.5H214.139C214.515 208.539 214.846 208.764 215.019 209.1L217.238 213.57C217.398 213.897 217.709 214.124 218.068 214.179L223.038 214.9C223.458 214.96 223.809 215.25 223.948 215.65C224.079 216.051 223.966 216.491 223.658 216.78L219.918 220.32Z" fill="#FF5722"/>
</g>
<defs>
<filter id="filter0_ddddd_1156_937" x="-77" y="0" width="783.333" height="982" filterUnits="userSpaceOnUse" color-interpolation-filters="sRGB">
<feFlood flood-opacity="0" result="BackgroundImageFix"/>
<feColorMatrix in="SourceAlpha" type="matrix" values="0 0 0 0 0 0 0 0 0 0 0 0 0 0 0 0 0 0 127 0" result="hardAlpha"/>
<feOffset/>
<feColorMatrix type="matrix" values="0 0 0 0 0 0 0 0 0 0 0 0 0 0 0 0 0 0 0.05 0"/>
<feBlend mode="normal" in2="BackgroundImageFix" result="effect1_dropShadow_1156_937"/>
<feColorMatrix in="SourceAlpha" type="matrix" values="0 0 0 0 0 0 0 0 0 0 0 0 0 0 0 0 0 0 127 0" result="hardAlpha"/>
<feOffset dy="32"/>
<feGaussianBlur stdDeviation="35.5"/>
<feColorMatrix type="matrix" values="0 0 0 0 0 0 0 0 0 0 0 0 0 0 0 0 0 0 0.05 0"/>
<feBlend mode="normal" in2="effect1_dropShadow_1156_937" result="effect2_dropShadow_1156_937"/>
<feColorMatrix in="SourceAlpha" type="matrix" values="0 0 0 0 0 0 0 0 0 0 0 0 0 0 0 0 0 0 127 0" result="hardAlpha"/>
<feOffset dy="128"/>
<feGaussianBlur stdDeviation="64"/>
<feColorMatrix type="matrix" values="0 0 0 0 0 0 0 0 0 0 0 0 0 0 0 0 0 0 0.04 0"/>
<feBlend mode="normal" in2="effect2_dropShadow_1156_937" result="effect3_dropShadow_1156_937"/>
<feColorMatrix in="SourceAlpha" type="matrix" values="0 0 0 0 0 0 0 0 0 0 0 0 0 0 0 0 0 0 127 0" result="hardAlpha"/>
<feOffset dy="288"/>
<feGaussianBlur stdDeviation="86.5"/>
<feColorMatrix type="matrix" values="0 0 0 0 0 0 0 0 0 0 0 0 0 0 0 0 0 0 0.03 0"/>
<feBlend mode="normal" in2="effect3_dropShadow_1156_937" result="effect4_dropShadow_1156_937"/>
<feColorMatrix in="SourceAlpha" type="matrix" values="0 0 0 0 0 0 0 0 0 0 0 0 0 0 0 0 0 0 127 0" result="hardAlpha"/>
<feOffset dy="513"/>
<feGaussianBlur stdDeviation="102.5"/>
<feColorMatrix type="matrix" values="0 0 0 0 0 0 0 0 0 0 0 0 0 0 0 0 0 0 0.01 0"/>
<feBlend mode="normal" in2="effect4_dropShadow_1156_937" result="effect5_dropShadow_1156_937"/>
<feBlend mode="normal" in="SourceGraphic" in2="effect5_dropShadow_1156_937" result="shape"/>
</filter>
</defs>
</svg>
